<?xml version="1.0" encoding="UTF-8" standalone="no"?>
<svg
   viewBox="0 0 104 132"
   fill-rule="evenodd"
   version="1.1"
   id="svg60"
   sodipodi:docname="favicon_true.svg"
   inkscape:version="1.4.4 (dcaf3e7d9e, 2026-05-05)"
   xmlns:inkscape="http://www.inkscape.org/namespaces/inkscape"
   xmlns:sodipodi="http://sodipodi.sourceforge.net/DTD/sodipodi-0.dtd"
   xmlns="http://www.w3.org/2000/svg"
   xmlns:svg="http://www.w3.org/2000/svg">
  <defs
     id="defs60" />
  <sodipodi:namedview
     id="namedview60"
     pagecolor="#505050"
     bordercolor="#ffffff"
     borderopacity="1"
     inkscape:showpageshadow="0"
     inkscape:pageopacity="0"
     inkscape:pagecheckerboard="1"
     inkscape:deskcolor="#505050"
     inkscape:zoom="4.75"
     inkscape:cx="52"
     inkscape:cy="65.894737"
     inkscape:window-width="1916"
     inkscape:window-height="1051"
     inkscape:window-x="0"
     inkscape:window-y="25"
     inkscape:window-maximized="1"
     inkscape:current-layer="svg60" />
  <path
     d="M32,12L32,4L28,4L28,12L32,12Z"
     fill="#000000"
     id="path1" />
  <path
     d="M36,48L40,48L40,40L36,40L36,48Z"
     fill="#000000"
     id="path2" />
  <path
     d="M36,48L32,48L32,56L36,56L36,48Z"
     fill="#000000"
     id="path3" />
  <path
     d="M28,64L32,64L32,56L28,56L28,64Z"
     fill="#000000"
     id="path4" />
  <path
     d="M28,64L24,64L24,72L28,72L28,64Z"
     fill="#000000"
     id="path5" />
  <path
     d="M24,72L20,72L20,80L24,80L24,72Z"
     fill="#000000"
     id="path6" />
  <path
     d="M28,84L24,84L24,92L20,92L20,100L16,100L16,108L12,108L12,120L16,120L16,124L20,124L24,124L28,124L28,121L29,121L29,117L30,117L30,112L31,112L31,106L32,106L32,98L33,98L33,94L34,94L34,92L35,92L35,90L36,90L36,89L37,89L37,88L38,88L38,87L39,87L39,86L40,86L41,86L41,85L43,85L43,84L44,84L46,84L46,83L48,83L52,83L52,84L55,84L55,85L56,85L57,85L57,86L59,86L59,87L60,87L60,88L61,88L61,89L62,89L62,90L63,90L63,92L64,92L64,93L65,93L65,94L66,94L66,95L67,95L67,96L68,96L69,96L69,97L70,97L70,98L71,98L71,100L72,100L72,110L71,110L71,111L70,111L70,112L69,112L69,113L68,113L68,114L66,114L66,115L65,115L65,117L66,117L66,119L67,119L67,121L68,121L68,122L69,122L69,123L70,123L70,124L71,124L72,124L76,124L80,124L84,124L88,124L88,120L92,120L92,108L88,108L88,100L84,100L84,92L80,92L80,84L76,84L76,76L72,76L72,80L68,80L68,76L64,76L64,80L60,80L60,76L56,76L56,72L52,72L52,76L48,76L48,72L44,72L44,76L40,76L40,72L36,72L36,76L28,76L28,84Z"
     fill="#000000"
     id="path7"
     style="fill:#ff8200;fill-opacity:1" />
  <path
     d="M20,80L16,80L16,88L20,88L20,80Z"
     fill="#000000"
     id="path8" />
  <path
     d="M16,88L12,88L12,96L16,96L16,88Z"
     fill="#000000"
     id="path9" />
  <path
     d="M36,95L35,95L35,97L34,97L34,100L33,100L33,106L34,106L34,107L35,107L36,107L36,105L37,105L37,103L38,103L38,102L39,102L39,100L38,100L38,97L39,97L39,95L38,95L38,94L36,94L36,95Z"
     fill="#000000"
     id="path10" />
  <path
     d="M12,96L8,96L8,104L12,104L12,96Z"
     fill="#000000"
     id="path11" />
  <path
     d="M41,103L40,103L40,104L41,104L41,103Z"
     fill="#000000"
     id="path12" />
  <path
     d="M40,108L41,108L41,109L40,109L40,111L39,111L39,113L38,113L38,118L39,118L39,120L40,120L40,122L41,122L41,123L42,123L43,123L44,123L44,124L47,124L49,124L52,124L52,123L49,123L49,122L47,122L47,121L44,121L44,120L43,120L43,119L42,119L42,118L43,118L44,118L44,119L45,119L46,119L47,119L47,120L48,120L49,120L49,121L50,121L52,121L52,122L54,122L57,122L57,124L59,124L61,124L63,124L67,124L68,124L68,123L67,123L67,122L63,122L63,123L61,123L61,121L63,121L63,120L64,120L65,120L65,119L64,119L64,117L63,117L63,116L61,116L61,118L59,118L59,117L57,117L57,116L54,116L54,115L53,115L53,114L52,114L52,113L54,113L54,114L55,114L57,114L57,115L60,115L61,115L61,114L62,114L63,114L63,113L66,113L66,112L68,112L68,111L69,111L69,110L70,110L70,108L69,108L69,107L62,107L62,108L60,108L60,109L57,109L57,110L55,110L55,111L52,111L52,112L50,112L50,111L48,111L48,109L47,109L47,108L46,108L46,107L45,107L45,106L44,106L44,108L43,108L43,105L44,105L44,104L42,104L42,105L41,105L41,106L40,106L40,104L39,104L39,107L40,107L40,108ZM61,120L61,119L63,119L63,120L61,120ZM45,108L45,109L44,109L44,108L45,108ZM48,117L47,117L47,116L46,116L46,115L47,115L48,115L48,116L50,116L50,117L52,117L52,118L53,118L54,118L54,119L57,119L59,119L59,121L54,121L54,120L52,120L52,119L50,119L50,118L48,118L48,117ZM43,109L43,110L42,110L42,109L43,109ZM44,110L45,110L45,111L43,111L43,110L44,110Z"
     fill="#000000"
     id="path13" />
  <path
     d="M8,104L4,104L4,112L8,112L8,104Z"
     fill="#000000"
     id="path14" />
  <path
     d="M31,121L30,121L30,124L31,124L32,124L33,124L34,124L35,124L36,124L37,124L38,124L39,124L39,123L38,123L38,122L37,122L37,120L36,120L36,118L35,118L35,115L34,115L34,109L33,109L33,112L32,112L32,117L31,117L31,121Z"
     fill="#000000"
     id="path15" />
  <path
     d="M4,112L0,112L0,124L4,124L4,112Z"
     fill="#000000"
     id="path16" />
  <path
     d="M12,124L4,124L4,128L12,128L12,124Z"
     fill="#000000"
     id="path17" />
  <path
     d="M44,16L60,16L60,40L64,40L64,16L72,16L72,12L32,12L32,16L40,16L40,40L44,40L44,16Z"
     fill="#000000"
     id="path18" />
  <path
     d="M44,60L40,60L40,64L44,64L44,60Z"
     fill="#000000"
     id="path19"
     style="fill:#ff8200;fill-opacity:1" />
  <path
     d="M44,68L40,68L40,72L44,72L44,68Z"
     fill="#000000"
     id="path20"
     style="fill:#ff8200;fill-opacity:1" />
  <path
     d="M48,91L48,90L44,90L44,91L42,91L42,92L41,92L41,93L40,93L40,97L41,97L41,98L42,98L42,99L43,99L44,99L44,98L45,98L46,98L47,98L47,99L48,99L48,100L49,100L50,100L50,99L51,99L51,98L52,98L52,94L51,94L51,93L50,93L50,92L49,92L49,91L48,91ZM46,94L46,92L48,92L48,94L46,94ZM46,95L48,95L49,95L49,94L50,94L50,96L49,96L49,97L46,97L46,96L45,96L45,95L44,95L44,94L43,94L43,92L44,92L45,92L45,94L46,94L46,95Z"
     fill="#000000"
     id="path21" />
  <path
     d="M45,103L45,102L41,102L41,103L44,103L44,104L46,104L46,103L45,103Z"
     fill="#000000"
     id="path22" />
  <path
     d="M47,104L46,104L46,105L45,105L45,106L46,106L46,107L47,107L48,107L48,106L49,106L49,105L51,105L51,104L52,104L52,102L51,102L51,103L49,103L49,104L48,104L48,105L47,105L47,104Z"
     fill="#000000"
     id="path23" />
  <path
     d="M49,107L48,107L48,109L49,109L50,109L50,110L51,110L51,109L51,108L52,108L52,109L53,109L54,109L55,109L55,108L54,108L54,107L54,106L55,106L55,105L53,105L53,106L50,106L50,107L50,108L49,108L49,107ZM52,107L53,107L53,108L52,108L52,107Z"
     fill="#000000"
     id="path24" />
  <path
     d="M72,0L32,0L32,4L72,4L72,0Z"
     fill="#000000"
     id="path25" />
  <path
     d="M52,20L48,20L48,24L52,24L52,20Z"
     fill="#000000"
     id="path26"
     style="fill:#ff8200;fill-opacity:1" />
  <path
     d="M56,28L52,28L52,32L56,32L56,28Z"
     fill="#000000"
     id="path27"
     style="fill:#ff8200;fill-opacity:1" />
  <path
     d="M52,36L48,36L48,40L52,40L52,36Z"
     fill="#000000"
     id="path28"
     style="fill:#ff8200;fill-opacity:1" />
  <path
     d="M52,52L48,52L48,56L52,56L52,52Z"
     fill="#000000"
     id="path29"
     style="fill:#ff8200;fill-opacity:1" />
  <path
     d="M52,68L48,68L48,72L52,72L52,68Z"
     fill="#000000"
     id="path30"
     style="fill:#ff8200;fill-opacity:1" />
  <path
     d="M48,88L50,88L50,87L52,87L52,86L53,86L53,85L45,85L45,86L46,86L46,87L48,87L48,88Z"
     fill="#000000"
     id="path31" />
  <path
     d="M55,101L56,101L56,100L57,100L57,98L56,98L56,99L55,99L55,100L54,100L54,99L52,99L52,100L53,100L53,101L54,101L54,102L55,102L55,101Z"
     fill="#000000"
     id="path32" />
  <path
     d="M56,107L55,107L55,108L56,108L57,108L57,107L58,107L58,106L57,106L57,105L57,104L55,104L55,105L56,105L56,107Z"
     fill="#000000"
     id="path33" />
  <path
     d="M92,128L12,128L12,132L92,132L92,128Z"
     fill="#000000"
     id="path34" />
  <path
     d="M60,44L56,44L56,48L60,48L60,44Z"
     fill="#000000"
     id="path35"
     style="fill:#ff8200;fill-opacity:1" />
  <path
     d="M60,60L56,60L56,64L60,64L60,60Z"
     fill="#000000"
     id="path36"
     style="fill:#ff8200;fill-opacity:1" />
  <path
     d="M56,72L60,72L60,68L56,68L56,72Z"
     fill="#000000"
     id="path37"
     style="fill:#ff8200;fill-opacity:1" />
  <path
     d="M60,76L64,76L64,72L60,72L60,76Z"
     fill="#000000"
     id="path38"
     style="fill:#ff8200;fill-opacity:1" />
  <path
     d="M58,96L58,98L59,98L59,97L60,97L60,96L62,96L62,95L64,95L65,95L65,94L64,94L64,93L62,93L62,94L60,94L60,95L59,95L59,96L58,96Z"
     fill="#000000"
     id="path39" />
  <path
     d="M60,104L60,105L61,105L61,106L62,106L62,105L62,104L63,104L63,105L64,105L64,103L63,103L63,102L62,102L62,101L60,101L60,102L61,102L61,104L60,104Z"
     fill="#000000"
     id="path40" />
  <path
     d="M65,101L69,101L69,100L62,100L62,101L64,101L64,103L65,103L65,104L66,104L66,105L67,105L67,104L68,104L68,103L66,103L66,102L65,102L65,101Z"
     fill="#000000"
     id="path41" />
  <path
     d="M57,104L58,104L58,106L59,106L59,107L60,107L60,105L59,105L59,104L59,103L60,103L60,102L58,102L58,103L57,103L57,104Z"
     fill="#000000"
     id="path42" />
  <path
     d="M76,4L72,4L72,12L76,12L76,4Z"
     fill="#000000"
     id="path43" />
  <path
     d="M68,40L64,40L64,48L68,48L68,40Z"
     fill="#000000"
     id="path44" />
  <path
     d="M72,56L72,48L68,48L68,56L72,56Z"
     fill="#000000"
     id="path45" />
  <path
     d="M72,56L72,64L76,64L76,56L72,56Z"
     fill="#000000"
     id="path46" />
  <path
     d="M68,60L64,60L64,64L68,64L68,60Z"
     fill="#000000"
     id="path47"
     style="fill:#ff8200;fill-opacity:1" />
  <path
     d="M80,64L76,64L76,72L80,72L80,64Z"
     fill="#000000"
     id="path48" />
  <path
     d="M68,72L68,68L64,68L64,72L68,72Z"
     fill="#000000"
     id="path49"
     style="fill:#ff8200;fill-opacity:1" />
  <path
     d="M68,72L68,76L72,76L72,72L68,72Z"
     fill="#000000"
     id="path50"
     style="fill:#ff8200;fill-opacity:1" />
  <path
     d="M84,80L84,72L80,72L80,80L84,80Z"
     fill="#000000"
     id="path51" />
  <path
     d="M84,80L84,88L88,88L88,80L84,80Z"
     fill="#000000"
     id="path52" />
  <path
     d="M92,88L88,88L88,96L92,96L92,88Z"
     fill="#000000"
     id="path53" />
  <path
     d="M96,96L92,96L92,104L96,104L96,96Z"
     fill="#000000"
     id="path54" />
  <path
     d="M69,101L69,102L70,102L70,101L69,101Z"
     fill="#000000"
     id="path55" />
  <path
     d="M69,102L68,102L68,103L69,103L69,102Z"
     fill="#000000"
     id="path56" />
  <path
     d="M69,105L70,105L71,105L71,102L70,102L70,103L69,103L69,105Z"
     fill="#000000"
     id="path57" />
  <path
     d="M100,104L96,104L96,112L100,112L100,104Z"
     fill="#000000"
     id="path58" />
  <path
     d="M104,112L100,112L100,124L104,124L104,112Z"
     fill="#000000"
     id="path59" />
  <path
     d="M100,124L92,124L92,128L100,128L100,124Z"
     fill="#000000"
     id="path60" />
</svg>
