<svg xmlns="http://www.w3.org/2000/svg" viewBox="0 0 484 132" fill-rule="evenodd">
  <path d="M16,32L12,32L12,40L8,40L8,48L4,48L4,56L0,56L0,64L4,64L8,64L8,60L12,60L12,52L16,52L16,44L20,44L20,40L24,40L56,40L56,36L60,36L60,32L24,32L24,28L28,28L28,24L72,24L72,20L76,20L76,16L20,16L20,20L20,24L16,24L16,28L16,32Z" fill="#FFFFFF"/>
  <path d="M76,32L76,40L72,40L72,48L68,48L68,56L72,56L76,56L80,56L112,56L112,52L116,52L116,48L80,48L80,44L84,44L84,36L88,36L88,28L92,28L92,16L84,16L84,24L80,24L80,32L76,32Z" fill="#FFFFFF"/>
  <path d="M120,48L120,56L124,56L128,56L128,52L132,52L132,44L136,44L136,36L140,36L140,28L144,28L144,16L136,16L136,24L132,24L132,32L128,32L128,40L124,40L124,48L120,48Z" fill="#FFFFFF"/>
  <path d="M124,68L124,72L128,72L128,68L124,68Z" fill="#FFFFFF"/>
  <path d="M132,68L132,72L136,72L136,68L132,68Z" fill="#FFFFFF"/>
  <path d="M124,76L124,80L128,80L128,76L124,76Z" fill="#FFFFFF"/>
  <path d="M132,76L132,80L136,80L136,76L132,76Z" fill="#FFFFFF"/>
  <path d="M116,76L116,80L120,80L120,76L116,76Z" fill="#FFFFFF"/>
  <path d="M128,84L124,84L124,88L128,88L128,84Z" fill="#FFFFFF"/>
  <path d="M108,84L108,88L112,88L112,84L108,84Z" fill="#FFFFFF"/>
  <path d="M100,84L100,88L104,88L104,84L100,84Z" fill="#FFFFFF"/>
  <path d="M96,84L92,84L92,88L96,88L96,84Z" fill="#FFFFFF"/>
  <path d="M120,84L116,84L116,88L120,88L120,84Z" fill="#FFFFFF"/>
  <path d="M120,92L124,92L124,88L120,88L120,92Z" fill="#FFFFFF"/>
  <path d="M116,88L112,88L112,92L116,92L116,88Z" fill="#FFFFFF"/>
  <path d="M132,92L132,88L128,88L128,92L132,92Z" fill="#FFFFFF"/>
  <path d="M124,92L124,96L128,96L128,92L124,92Z" fill="#FFFFFF"/>
  <path d="M92,92L92,96L96,96L96,92L92,92Z" fill="#FFFFFF"/>
  <path d="M100,92L100,96L104,96L104,92L100,92Z" fill="#FFFFFF"/>
  <path d="M116,92L116,96L120,96L120,92L116,92Z" fill="#FFFFFF"/>
  <path d="M108,92L108,96L112,96L112,92L108,92Z" fill="#FFFFFF"/>
  <path d="M88,92L84,92L84,96L88,96L88,92Z" fill="#FFFFFF"/>
  <path d="M120,96L120,100L124,100L124,96L120,96Z" fill="#FFFFFF"/>
  <path d="M128,96L128,100L132,100L132,96L128,96Z" fill="#FFFFFF"/>
  <path d="M112,104L112,108L116,108L116,104L112,104Z" fill="#FFFFFF"/>
  <path d="M128,104L128,108L132,108L132,104L128,104Z" fill="#FFFFFF"/>
  <path d="M120,104L120,108L124,108L124,104L120,104Z" fill="#FFFFFF"/>
  <path d="M96,104L96,108L100,108L100,104L96,104Z" fill="#FFFFFF"/>
  <path d="M128,108L124,108L124,112L128,112L128,108Z" fill="#FFFFFF"/>
  <path d="M92,108L92,112L96,112L96,108L92,108Z" fill="#FFFFFF"/>
  <path d="M100,108L100,112L104,112L104,108L100,108Z" fill="#FFFFFF"/>
  <path d="M84,108L84,112L88,112L88,108L84,108Z" fill="#FFFFFF"/>
  <path d="M116,108L116,112L120,112L120,108L116,108Z" fill="#FFFFFF"/>
  <path d="M108,108L108,112L112,112L112,108L108,108Z" fill="#FFFFFF"/>
  <path d="M120,112L120,116L124,116L124,112L120,112Z" fill="#FFFFFF"/>
  <path d="M132,112L128,112L128,116L132,116L132,112Z" fill="#FFFFFF"/>
  <path d="M112,112L112,116L116,116L116,112L112,112Z" fill="#FFFFFF"/>
  <path d="M104,112L104,116L108,116L108,112L104,112Z" fill="#FFFFFF"/>
  <path d="M124,120L120,120L120,124L124,124L124,120Z" fill="#FFFFFF"/>
  <path d="M128,120L128,124L132,124L132,120L128,120Z" fill="#FFFFFF"/>
  <path d="M112,120L112,124L116,124L116,120L112,120Z" fill="#FFFFFF"/>
  <path d="M108,120L104,120L104,124L108,124L108,120Z" fill="#FFFFFF"/>
  <path d="M120,128L120,132L124,132L124,128L120,128Z" fill="#FFFFFF"/>
  <path d="M112,128L112,132L116,132L116,128L112,128Z" fill="#FFFFFF"/>
  <path d="M152,16L152,24L148,24L148,28L148,32L144,32L144,40L140,40L140,48L136,48L136,56L140,56L144,56L144,52L148,52L148,44L152,44L152,40L156,40L192,40L192,36L196,36L196,32L200,32L200,28L204,28L204,24L208,24L208,16L152,16ZM188,28L188,32L156,32L156,28L160,28L160,24L192,24L192,28L188,28Z" fill="#FFFFFF"/>
  <path d="M200,56L204,56L208,56L208,52L212,52L212,44L216,44L216,40L220,40L256,40L256,36L260,36L260,32L264,32L264,28L268,28L268,24L272,24L272,16L216,16L216,24L212,24L212,28L212,32L208,32L208,40L204,40L204,48L200,48L200,56ZM256,24L256,28L252,28L252,32L220,32L220,28L224,28L224,24L256,24Z" fill="#FFFFFF"/>
  <path d="M152,64L152,68L156,68L156,64L152,64Z" fill="#FFFFFF"/>
  <path d="M168,64L168,68L164,68L164,64L160,64L160,68L156,68L156,72L152,72L152,76L148,76L148,80L144,80L144,84L140,84L140,88L136,88L136,92L132,92L132,96L136,96L136,100L140,100L140,96L144,96L144,100L148,100L148,96L152,96L152,100L156,100L156,104L152,104L152,108L148,108L148,104L144,104L144,108L140,108L140,104L136,104L136,108L132,108L132,112L136,112L136,116L140,116L140,112L144,112L144,116L148,116L148,112L152,112L152,116L156,116L156,112L160,112L160,116L164,116L168,116L172,116L176,116L180,116L184,116L228,116L232,116L240,116L248,116L252,116L256,116L280,116L288,116L292,116L296,116L300,116L356,116L360,116L364,116L368,116L368,112L372,112L372,104L376,104L376,96L380,96L380,88L384,88L384,80L388,80L388,72L392,72L392,64L192,64L192,68L188,68L188,64L176,64L176,68L172,68L172,64L168,64ZM160,72L160,76L156,76L156,72L160,72ZM152,80L152,84L148,84L148,80L152,80ZM144,88L144,92L140,92L140,88L144,88ZM156,96L160,96L160,100L156,100L156,96ZM356,108L356,112L300,112L300,104L304,104L304,96L308,96L308,88L312,88L312,80L316,80L316,72L364,72L364,80L364,84L360,84L360,88L356,88L356,92L360,92L364,92L364,96L364,100L360,100L360,108L356,108ZM168,104L168,108L164,108L164,104L168,104ZM168,88L168,92L164,92L164,88L168,88ZM176,96L176,100L172,100L172,96L176,96ZM172,80L176,80L176,84L172,84L172,80ZM184,76L180,76L180,72L184,72L184,76ZM188,96L192,96L192,88L196,88L196,80L200,80L200,72L208,72L208,80L208,84L204,84L204,92L200,92L200,100L196,100L196,104L200,104L204,104L208,104L232,104L232,108L228,108L228,112L184,112L184,104L188,104L188,96ZM164,72L168,72L168,76L164,76L164,72ZM168,80L168,84L164,84L164,80L168,80ZM160,80L160,84L156,84L156,80L160,80ZM160,88L160,92L156,92L156,88L160,88ZM152,92L148,92L148,88L152,88L152,92ZM256,80L256,72L304,72L304,80L304,84L300,84L300,92L296,92L296,100L292,100L292,108L288,108L288,112L280,112L280,104L284,104L284,96L256,96L256,100L252,100L252,108L248,108L248,112L240,112L240,104L244,104L244,96L248,96L248,88L252,88L252,80L256,80Z" fill="#FFFFFF"/>
  <path d="M152,68L148,68L148,64L144,64L144,68L140,68L140,72L144,72L144,76L148,76L148,72L152,72L152,68Z" fill="#FFFFFF"/>
  <path d="M140,76L140,80L144,80L144,76L140,76Z" fill="#FFFFFF"/>
  <path d="M136,80L136,84L140,84L140,80L136,80Z" fill="#FFFFFF"/>
  <path d="M132,84L132,88L136,88L136,84L132,84Z" fill="#FFFFFF"/>
  <path d="M132,100L132,104L136,104L136,100L132,100Z" fill="#FFFFFF"/>
  <path d="M148,100L148,104L152,104L152,100L148,100Z" fill="#FFFFFF"/>
  <path d="M140,100L140,104L144,104L144,100L140,100Z" fill="#FFFFFF"/>
  <path d="M280,20L280,24L276,24L276,28L276,32L272,32L272,40L268,40L268,48L264,48L264,56L268,56L272,56L276,56L308,56L308,52L312,52L312,48L276,48L276,44L280,44L280,40L284,40L316,40L316,36L320,36L320,32L284,32L284,28L288,28L288,24L324,24L324,20L328,20L328,16L280,16L280,20Z" fill="#FFFFFF"/>
  <path d="M328,32L328,40L324,40L324,48L320,48L320,56L324,56L328,56L328,52L332,52L332,44L336,44L336,40L340,40L364,40L364,44L368,44L368,48L372,48L372,52L376,52L376,56L388,56L388,52L384,52L384,48L380,48L380,44L376,44L376,40L376,36L380,36L380,32L384,32L384,28L388,28L388,24L392,24L392,20L396,20L396,16L336,16L336,20L336,24L332,24L332,28L332,32L328,32ZM344,24L376,24L376,28L372,28L372,32L340,32L340,28L344,28L344,24Z" fill="#FFFFFF"/>
  <path d="M288,88L288,84L292,84L292,80L264,80L264,84L260,84L260,88L288,88Z" fill="#FFFFFF"/>
  <path d="M348,88L348,84L352,84L352,80L324,80L324,84L320,84L320,88L348,88Z" fill="#FFFFFF"/>
  <path d="M352,96L316,96L316,100L312,100L312,104L348,104L348,100L352,100L352,96Z" fill="#FFFFFF"/>
  <path d="M136,120L136,124L364,124L364,120L136,120Z" fill="#FFFFFF"/>
  <path d="M128,128L128,132L360,132L360,128L128,128Z" fill="#FFFFFF"/>
  <path d="M408,4L408,12L412,12L412,4L408,4Z" fill="#FFFFFF"/>
  <path d="M416,40L416,48L420,48L420,40L416,40Z" fill="#FFFFFF"/>
  <path d="M412,48L412,56L416,56L416,48L412,48Z" fill="#FFFFFF"/>
  <path d="M412,64L412,56L408,56L408,64L412,64Z" fill="#FFFFFF"/>
  <path d="M404,64L404,72L408,72L408,64L404,64Z" fill="#FFFFFF"/>
  <path d="M400,72L400,80L404,80L404,72L400,72Z" fill="#FFFFFF"/>
  <path d="M413,98L413,94L414,94L414,92L415,92L415,90L416,90L416,89L417,89L417,88L418,88L418,87L419,87L419,86L420,86L421,86L421,85L423,85L423,84L424,84L426,84L426,83L428,83L432,83L432,84L435,84L435,85L436,85L437,85L437,86L439,86L439,87L440,87L440,88L441,88L441,89L442,89L442,90L443,90L443,92L444,92L444,93L442,93L442,94L440,94L440,95L439,95L439,96L438,96L438,98L439,98L439,97L440,97L440,96L442,96L442,95L444,95L447,95L447,96L448,96L449,96L449,97L450,97L450,98L451,98L451,100L452,100L452,103L450,103L450,102L449,102L449,101L448,101L448,100L442,100L442,101L444,101L444,103L445,103L445,104L446,104L446,105L447,105L447,104L448,104L448,103L449,103L449,105L450,105L450,104L452,104L452,110L451,110L451,111L450,111L450,112L449,112L449,113L448,113L448,114L446,114L446,115L445,115L445,117L446,117L446,119L447,119L447,121L448,121L448,122L449,122L449,123L450,123L450,124L451,124L452,124L456,124L460,124L464,124L468,124L468,120L472,120L472,108L468,108L468,100L464,100L464,92L460,92L460,84L456,84L456,76L452,76L452,80L448,80L448,76L444,76L444,80L440,80L440,76L436,76L436,72L432,72L432,76L428,76L428,72L424,72L424,76L420,76L420,72L416,72L416,76L408,76L408,84L404,84L404,92L400,92L400,100L396,100L396,108L392,108L392,120L396,120L396,124L400,124L404,124L408,124L408,121L409,121L409,117L410,117L410,112L411,112L411,106L412,106L412,98L413,98ZM448,102L447,102L447,103L446,103L446,102L445,102L445,101L448,101L448,102Z" fill="#FFFFFF"/>
  <path d="M396,80L396,88L400,88L400,80L396,80Z" fill="#FFFFFF"/>
  <path d="M392,88L392,96L396,96L396,88L392,88Z" fill="#FFFFFF"/>
  <path d="M418,95L418,94L416,94L416,95L415,95L415,97L414,97L414,100L413,100L413,106L414,106L414,107L415,107L416,107L416,105L417,105L417,103L418,103L418,102L419,102L419,100L418,100L418,97L419,97L419,95L418,95Z" fill="#FFFFFF"/>
  <path d="M388,96L388,104L392,104L392,96L388,96Z" fill="#FFFFFF"/>
  <path d="M421,108L421,109L420,109L420,111L419,111L419,113L418,113L418,118L419,118L419,120L420,120L420,122L421,122L421,123L422,123L423,123L424,123L424,124L427,124L429,124L432,124L432,123L429,123L429,122L427,122L427,121L424,121L424,120L423,120L423,119L422,119L422,118L423,118L424,118L424,119L425,119L426,119L427,119L427,120L428,120L429,120L429,121L430,121L432,121L432,122L434,122L437,122L437,124L439,124L441,124L443,124L447,124L448,124L448,123L447,123L447,122L443,122L443,123L441,123L441,121L443,121L443,120L444,120L445,120L445,119L444,119L444,117L443,117L443,116L441,116L441,118L439,118L439,117L437,117L437,116L434,116L434,115L433,115L433,114L432,114L432,113L434,113L434,114L435,114L437,114L437,115L440,115L441,115L441,114L442,114L443,114L443,113L446,113L446,112L448,112L448,111L449,111L449,110L450,110L450,108L449,108L449,107L442,107L442,108L440,108L440,109L437,109L437,110L435,110L435,111L432,111L432,112L430,112L430,111L428,111L428,109L427,109L427,108L426,108L426,107L425,107L425,106L424,106L424,108L423,108L423,105L424,105L424,104L422,104L422,105L421,105L421,106L420,106L420,104L419,104L419,107L420,107L420,108L421,108ZM441,120L441,119L443,119L443,120L441,120ZM425,108L425,109L424,109L424,108L425,108ZM428,118L428,117L427,117L427,116L426,116L426,115L427,115L428,115L428,116L430,116L430,117L432,117L432,118L433,118L434,118L434,119L437,119L439,119L439,121L434,121L434,120L432,120L432,119L430,119L430,118L428,118ZM422,109L423,109L423,110L422,110L422,109ZM424,110L425,110L425,111L423,111L423,110L424,110Z" fill="#FFFFFF"/>
  <path d="M388,104L384,104L384,112L388,112L388,104Z" fill="#FFFFFF"/>
  <path d="M413,112L412,112L412,117L411,117L411,121L410,121L410,124L411,124L412,124L413,124L414,124L415,124L416,124L417,124L418,124L419,124L419,123L418,123L418,122L417,122L417,120L416,120L416,118L415,118L415,115L414,115L414,109L413,109L413,112Z" fill="#FFFFFF"/>
  <path d="M380,112L380,124L384,124L384,112L380,112Z" fill="#FFFFFF"/>
  <path d="M384,124L384,128L392,128L392,124L384,124Z" fill="#FFFFFF"/>
  <path d="M432,20L428,20L428,24L432,24L432,20Z" fill="#FFFFFF"/>
  <path d="M440,16L440,40L444,40L444,16L452,16L452,12L412,12L412,16L420,16L420,40L424,40L424,16L440,16Z" fill="#FFFFFF"/>
  <path d="M428,36L428,40L432,40L432,36L428,36Z" fill="#FFFFFF"/>
  <path d="M428,52L428,56L432,56L432,52L428,52Z" fill="#FFFFFF"/>
  <path d="M420,60L420,64L424,64L424,60L420,60Z" fill="#FFFFFF"/>
  <path d="M424,68L420,68L420,72L424,72L424,68Z" fill="#FFFFFF"/>
  <path d="M432,87L432,86L433,86L433,85L425,85L425,86L426,86L426,87L428,87L428,88L430,88L430,87L432,87Z" fill="#FFFFFF"/>
  <path d="M421,93L420,93L420,97L421,97L421,98L422,98L422,99L423,99L424,99L424,98L425,98L426,98L427,98L427,99L428,99L428,100L429,100L430,100L430,99L431,99L431,98L432,98L432,94L431,94L431,93L430,93L430,92L429,92L429,91L428,91L428,90L424,90L424,91L422,91L422,92L421,92L421,93ZM429,97L426,97L426,96L425,96L425,95L424,95L424,94L423,94L423,92L424,92L425,92L425,94L426,94L426,95L428,95L429,95L429,94L430,94L430,96L429,96L429,97ZM426,92L428,92L428,94L426,94L426,92Z" fill="#FFFFFF"/>
  <path d="M425,103L425,102L421,102L421,103L424,103L424,104L426,104L426,103L425,103Z" fill="#FFFFFF"/>
  <path d="M420,103L420,104L421,104L421,103L420,103Z" fill="#FFFFFF"/>
  <path d="M425,106L426,106L426,107L427,107L428,107L428,106L429,106L429,105L431,105L431,104L432,104L432,102L431,102L431,103L429,103L429,104L428,104L428,105L427,105L427,104L426,104L426,105L425,105L425,106Z" fill="#FFFFFF"/>
  <path d="M429,107L428,107L428,109L429,109L430,109L430,110L431,110L431,109L431,108L432,108L432,109L433,109L434,109L435,109L435,108L434,108L434,107L434,106L435,106L435,105L433,105L433,106L430,106L430,107L430,108L429,108L429,107ZM432,107L433,107L433,108L432,108L432,107Z" fill="#FFFFFF"/>
  <path d="M412,0L412,4L452,4L452,0L412,0Z" fill="#FFFFFF"/>
  <path d="M432,28L432,32L436,32L436,28L432,28Z" fill="#FFFFFF"/>
  <path d="M436,44L436,48L440,48L440,44L436,44Z" fill="#FFFFFF"/>
  <path d="M436,60L436,64L440,64L440,60L436,60Z" fill="#FFFFFF"/>
  <path d="M436,68L436,72L440,72L440,68L436,68Z" fill="#FFFFFF"/>
  <path d="M432,72L432,68L428,68L428,72L432,72Z" fill="#FFFFFF"/>
  <path d="M434,100L434,99L432,99L432,100L433,100L433,101L434,101L434,102L435,102L435,101L436,101L436,100L437,100L437,98L436,98L436,99L435,99L435,100L434,100Z" fill="#FFFFFF"/>
  <path d="M440,104L440,105L441,105L441,106L442,106L442,105L442,104L443,104L443,105L444,105L444,103L443,103L443,102L442,102L442,101L440,101L440,102L441,102L441,104L440,104Z" fill="#FFFFFF"/>
  <path d="M438,104L438,106L439,106L439,107L440,107L440,105L439,105L439,104L439,103L440,103L440,102L438,102L438,103L437,103L437,104L438,104Z" fill="#FFFFFF"/>
  <path d="M435,107L435,108L436,108L437,108L437,107L438,107L438,106L437,106L437,105L437,104L435,104L435,105L436,105L436,107L435,107Z" fill="#FFFFFF"/>
  <path d="M392,128L392,132L472,132L472,128L392,128Z" fill="#FFFFFF"/>
  <path d="M452,4L452,12L456,12L456,4L452,4Z" fill="#FFFFFF"/>
  <path d="M444,48L448,48L448,40L444,40L444,48Z" fill="#FFFFFF"/>
  <path d="M452,48L448,48L448,56L452,56L452,48Z" fill="#FFFFFF"/>
  <path d="M452,64L456,64L456,56L452,56L452,64Z" fill="#FFFFFF"/>
  <path d="M448,60L444,60L444,64L448,64L448,60Z" fill="#FFFFFF"/>
  <path d="M456,64L456,72L460,72L460,64L456,64Z" fill="#FFFFFF"/>
  <path d="M444,68L444,72L448,72L448,68L444,68Z" fill="#FFFFFF"/>
  <path d="M444,72L440,72L440,76L444,76L444,72Z" fill="#FFFFFF"/>
  <path d="M448,72L448,76L452,76L452,72L448,72Z" fill="#FFFFFF"/>
  <path d="M460,72L460,80L464,80L464,72L460,72Z" fill="#FFFFFF"/>
  <path d="M468,80L464,80L464,88L468,88L468,80Z" fill="#FFFFFF"/>
  <path d="M472,88L468,88L468,96L472,96L472,88Z" fill="#FFFFFF"/>
  <path d="M472,96L472,104L476,104L476,96L472,96Z" fill="#FFFFFF"/>
  <path d="M476,104L476,112L480,112L480,104L476,104Z" fill="#FFFFFF"/>
  <path d="M480,112L480,124L484,124L484,112L480,112Z" fill="#FFFFFF"/>
  <path d="M472,124L472,128L480,128L480,124L472,124Z" fill="#FFFFFF"/>
</svg>
