<?xml version="1.0" encoding="UTF-8" ?>
<svg version="1.1" width="14" height="14" xmlns="http://www.w3.org/2000/svg" shape-rendering="crispEdges">
<rect x="4" y="0" width="6" height="1" fill="#000000" />
<rect x="2" y="1" width="4" height="3" fill="#000000" />
<rect x="8" y="1" width="4" height="1" fill="#000000" />
<rect x="7" y="2" width="1" height="4" fill="#000000" />
<rect x="9" y="2" width="3" height="1" fill="#000000" />
<rect x="1" y="3" width="1" height="8" fill="#000000" />
<rect x="8" y="3" width="1" height="3" fill="#000000" />
<rect x="10" y="3" width="3" height="1" fill="#000000" />
<rect x="2" y="4" width="1" height="9" fill="#000000" />
<rect x="4" y="4" width="2" height="1" fill="#000000" />
<rect x="9" y="4" width="1" height="1" fill="#000000" />
<rect x="11" y="4" width="2" height="7" fill="#000000" />
<rect x="3" y="5" width="1" height="4" fill="#000000" />
<rect x="5" y="5" width="1" height="1" fill="#000000" />
<rect x="10" y="5" width="1" height="4" fill="#000000" />
<rect x="4" y="6" width="1" height="2" fill="#000000" />
<rect x="9" y="6" width="1" height="2" fill="#000000" />
<rect x="5" y="8" width="1" height="6" fill="#000000" />
<rect x="7" y="8" width="2" height="3" fill="#000000" />
<rect x="4" y="9" width="1" height="5" fill="#000000" />
<rect x="9" y="9" width="1" height="1" fill="#000000" />
<rect x="3" y="10" width="1" height="3" fill="#000000" />
<rect x="10" y="10" width="1" height="3" fill="#000000" />
<rect x="7" y="11" width="1" height="1" fill="#000000" />
<rect x="9" y="11" width="1" height="3" fill="#000000" />
<rect x="11" y="11" width="1" height="2" fill="#000000" />
<rect x="8" y="12" width="1" height="2" fill="#000000" />
<rect x="6" y="13" width="2" height="1" fill="#000000" />
</svg>